<?xml version="1.0" encoding="UTF-8"?>
<svg width="18px" height="23px" viewBox="0 0 18 23" version="1.1" xmlns="http://www.w3.org/2000/svg" xmlns:xlink="http://www.w3.org/1999/xlink">
    <title>pin(1)</title>
    <g id="Page-1" stroke="none" stroke-width="1" fill="none" fill-rule="evenodd">
        <g id="Desktop-HD" transform="translate(-611.000000, -13.000000)" fill="#FFFFFF" fill-rule="nonzero">
            <g id="Адрес" transform="translate(611.000000, 8.000000)">
                <g id="pin(1)" transform="translate(0.000000, 5.000000)">
                    <path d="M8.625,0 C3.86907353,0 0,3.81134289 0,8.49630595 C0,10.0386354 0.702176471,11.6974142 0.731602941,11.7673837 C0.958389706,12.2976532 1.405875,13.1212951 1.72855147,13.6040852 L7.64225735,22.4307475 C7.88426471,22.7925902 8.24245588,23 8.625,23 C9.00754412,23 9.36573529,22.7925902 9.60774265,22.4312473 L15.5219559,13.6040852 C15.8451397,13.1212951 16.2921176,12.2976532 16.5189044,11.7673837 C16.5483309,11.697914 17.25,10.0391352 17.25,8.49630595 C17.25,3.81134289 13.3809265,0 8.625,0 Z M15.5833456,11.3795524 C15.3809118,11.8548457 14.964375,12.6210126 14.6746765,13.0538244 L8.76046324,21.8809865 C8.64377206,22.0554107 8.60673529,22.0554107 8.49004412,21.8809865 L2.57583088,13.0538244 C2.28613235,12.6210126 1.86959559,11.8543459 1.66716176,11.3790526 C1.65853676,11.3585615 1.01470588,9.83172534 1.01470588,8.49630595 C1.01470588,4.36260322 4.42868382,0.999565406 8.625,0.999565406 C12.8213162,0.999565406 16.2352941,4.36260322 16.2352941,8.49630595 C16.2352941,9.83372447 15.5899412,11.3645589 15.5833456,11.3795524 Z" id="Shape"></path>
                    <path d="M8.625,4.3125 C6.24689583,4.3125 4.3125,6.09853846 4.3125,8.29326923 C4.3125,10.488 6.24689583,12.2740385 8.625,12.2740385 C11.0031042,12.2740385 12.9375,10.488 12.9375,8.29326923 C12.9375,6.09853846 11.0031042,4.3125 8.625,4.3125 Z M8.625,11.3894231 C6.77589583,11.3894231 5.27083333,10.0005769 5.27083333,8.29326923 C5.27083333,6.58596154 6.77589583,5.19711538 8.625,5.19711538 C10.4741042,5.19711538 11.9791667,6.58596154 11.9791667,8.29326923 C11.9791667,10.0005769 10.4741042,11.3894231 8.625,11.3894231 Z" id="Shape"></path>
                </g>
            </g>
        </g>
    </g>
</svg>