<svg xmlns="http://www.w3.org/2000/svg" width="922" height="47" viewBox="0 0 922 47">
    <metadata><?xpacket begin="﻿" id="W5M0MpCehiHzreSzNTczkc9d"?>
        <x:xmpmeta xmlns:x="adobe:ns:meta/" x:xmptk="Adobe XMP Core 5.6-c142 79.160924, 2017/07/13-01:06:39        ">
            <rdf:RDF xmlns:rdf="http://www.w3.org/1999/02/22-rdf-syntax-ns#">
                <rdf:Description rdf:about=""/>
            </rdf:RDF>
        </x:xmpmeta>

        <?xpacket end="w"?></metadata>
    <defs>
        <style>
            .cls-1 {
            fill: #c78e66;
            fill-rule: evenodd;
            }
        </style>
    </defs>
    <path id="Фигура_2" data-name="Фигура 2" class="cls-1" d="M1889.65,514.054l-21.86,16.609-21.86-16.609H1831.1l29.28,22.241-29.28,22.24h14.83l21.86-16.607,21.86,16.607h14.83l-29.27-22.24,29.27-22.241h-14.83Zm-152.36,9.5V549.04a9.594,9.594,0,0,0,9.68,9.5h57.08v-8.092h-50.82a4.8,4.8,0,0,1-4.84-4.748V540h51.58v-8.091h-51.58v-5.017a4.8,4.8,0,0,1,4.84-4.746h50.82v-8.091h-57.08a9.594,9.594,0,0,0-9.68,9.5m194.24,0V549.04a9.594,9.594,0,0,0,9.68,9.5h57.08v-8.092h-50.82a4.79,4.79,0,0,1-4.84-4.748V540h51.57v-8.091h-51.57v-5.017a4.789,4.789,0,0,1,4.84-4.746h50.82v-8.091h-57.08a9.594,9.594,0,0,0-9.68,9.5m244.8-9.5h-57.08v44.48h57.08a9.592,9.592,0,0,0,9.68-9.494V523.552a9.594,9.594,0,0,0-9.68-9.5m-1.42,31.645a4.8,4.8,0,0,1-4.84,4.746h-39.73v-28.3h39.73a4.8,4.8,0,0,1,4.84,4.749V545.7Zm-149.47-22.149V549.04a9.587,9.587,0,0,0,9.68,9.5h57.07v-8.092h-50.82a4.8,4.8,0,0,1-4.84-4.748V540h51.57v-8.091h-51.57v-5.017a4.8,4.8,0,0,1,4.84-4.746h50.82v-8.091h-57.07a9.587,9.587,0,0,0-9.68,9.5m-429.7,9.516a1.762,1.762,0,0,0,1.8-1.774v-5.544a1.758,1.758,0,0,0-1.8-1.774h-42.89v36.812h-10.61V514h55.53a9.071,9.071,0,0,1,9.25,9.092V532.4a9.071,9.071,0,0,1-9.25,9.092h-17.38l26.86,19.515h-18.06l-36.34-27.942h42.89Zm-133.98-9.092h51.46V514h-54.85a9.071,9.071,0,0,0-9.25,9.092V551.7a9.071,9.071,0,0,0,9.25,9.092h54.85v-9.979h-51.46a1.836,1.836,0,0,1-1.81-2V542.16h48.31v-9.98h-48.31v-6.431a1.883,1.883,0,0,1,1.81-1.774M1366.83,514v17.741h42.66V514h10.61v47.013h-10.61V542.825h-42.66v18.184h-10.61V514h10.61ZM1264,551.917a9.074,9.074,0,0,0,9.26,9.092h53.95V550.143h-50.57a1.762,1.762,0,0,1-1.8-1.774V526.636a1.758,1.758,0,0,1,1.8-1.774h50.57V514h-53.95a9.074,9.074,0,0,0-9.26,9.092v28.829Zm404.77-15.967L1691.34,514h15.58l-32.06,30.6v16.41h-13.09V544.821L1629.49,514h15.58Z" transform="translate(-1264 -514)"/>
</svg>